<svg id="svg" version="1.1" xmlns="http://www.w3.org/2000/svg" xmlns:xlink="http://www.w3.org/1999/xlink" width="400" height="400" viewBox="0, 0, 400,400"><g id="svgg"><path id="path0" d="M101.400 146.500 L 101.400 151.000 84.600 151.240 C 75.360 151.372,67.748 151.507,67.685 151.540 C 67.622 151.573,67.622 153.265,67.685 155.300 L 67.800 159.000 69.126 159.127 C 71.198 159.326,71.600 158.713,71.600 155.351 L 71.600 152.400 88.400 152.400 L 105.200 152.400 105.200 147.600 L 105.200 142.800 103.600 142.800 C 102.720 142.800,102.000 142.620,102.000 142.400 C 102.000 142.180,101.865 142.000,101.700 142.000 C 101.535 142.000,101.400 144.025,101.400 146.500 M281.400 146.500 L 281.400 151.000 264.600 151.240 C 255.360 151.372,247.752 151.507,247.694 151.540 C 247.636 151.573,247.636 157.045,247.694 163.700 L 247.800 175.800 249.126 175.927 C 251.621 176.167,251.600 176.270,251.600 163.751 L 251.600 152.400 268.362 152.400 L 285.125 152.400 285.402 150.387 C 285.554 149.280,285.553 147.120,285.399 145.587 L 285.119 142.800 283.559 142.800 C 282.702 142.800,282.000 142.620,282.000 142.400 C 282.000 142.180,281.865 142.000,281.700 142.000 C 281.535 142.000,281.400 144.025,281.400 146.500 M341.400 146.500 L 341.400 151.000 324.600 151.211 C 315.360 151.327,307.748 151.462,307.685 151.511 C 307.622 151.560,307.622 153.265,307.685 155.300 L 307.800 159.000 309.126 159.127 C 311.198 159.326,311.600 158.713,311.600 155.351 L 311.600 152.400 328.412 152.400 L 345.225 152.400 345.112 147.500 L 345.000 142.600 343.500 142.731 C 342.613 142.809,342.000 142.686,342.000 142.431 C 342.000 142.194,341.865 142.000,341.700 142.000 C 341.535 142.000,341.400 144.025,341.400 146.500 M153.067 143.067 C 152.920 143.213,152.800 145.013,152.800 147.067 L 152.800 150.800 154.300 150.787 C 156.839 150.766,157.200 150.202,157.200 146.256 L 157.200 142.800 155.267 142.800 C 154.203 142.800,153.213 142.920,153.067 143.067 M213.067 143.067 C 212.920 143.213,212.800 145.013,212.800 147.067 L 212.800 150.800 214.300 150.787 C 216.839 150.766,217.200 150.202,217.200 146.256 L 217.200 142.800 215.267 142.800 C 214.203 142.800,213.213 142.920,213.067 143.067 M62.890 146.581 C 62.882 148.871,63.005 149.934,63.232 149.528 C 63.437 149.163,63.442 147.640,63.246 145.947 L 62.904 143.000 62.890 146.581 M158.000 150.400 C 158.000 150.620,158.731 150.800,159.624 150.800 C 160.604 150.800,161.149 150.642,161.000 150.400 C 160.864 150.180,160.133 150.000,159.376 150.000 C 158.619 150.000,158.000 150.180,158.000 150.400 M218.000 150.400 C 218.000 150.620,218.495 150.797,219.100 150.794 C 219.957 150.789,220.068 150.702,219.600 150.400 C 218.817 149.894,218.000 149.894,218.000 150.400 M161.508 159.277 L 161.400 167.800 157.612 168.091 C 152.438 168.489,152.800 168.136,152.800 172.782 L 152.800 176.789 140.300 176.894 L 127.800 177.000 127.686 180.900 L 127.571 184.800 125.418 184.800 C 123.105 184.800,122.000 185.072,122.000 185.643 C 122.000 185.839,124.160 186.000,126.800 186.000 L 131.600 186.000 131.600 182.000 L 131.600 178.000 144.400 178.000 L 157.200 178.000 157.200 173.600 L 157.200 169.200 161.208 169.200 L 165.215 169.200 165.108 160.100 L 165.000 151.000 163.308 150.877 L 161.616 150.755 161.508 159.277 M221.504 167.677 L 221.400 184.600 219.400 184.705 C 213.617 185.007,214.387 186.000,220.404 186.000 L 225.208 186.000 225.104 168.500 L 225.000 151.000 223.304 150.877 L 221.609 150.754 221.504 167.677 M128.091 151.535 C 127.702 151.782,127.608 153.680,127.691 159.629 L 127.800 167.400 129.234 167.520 C 131.446 167.706,131.568 167.310,131.690 159.571 L 131.800 152.600 140.400 152.380 C 149.674 152.143,149.200 152.185,149.200 151.600 C 149.200 151.114,128.853 151.052,128.091 151.535 M189.492 151.494 L 187.583 151.645 187.692 159.522 L 187.800 167.400 189.126 167.527 C 191.512 167.756,191.600 167.472,191.600 159.551 L 191.600 152.400 199.767 152.400 C 207.782 152.400,209.200 152.273,209.200 151.557 C 209.200 151.219,193.627 151.169,189.492 151.494 M93.067 159.867 C 92.920 160.013,92.800 161.813,92.800 163.867 L 92.800 167.600 94.300 167.587 C 96.839 167.566,97.200 167.002,97.200 163.056 L 97.200 159.600 95.267 159.600 C 94.203 159.600,93.213 159.720,93.067 159.867 M333.067 159.867 C 332.920 160.013,332.800 161.903,332.800 164.067 L 332.800 168.000 320.700 168.006 C 306.470 168.013,307.534 167.668,307.683 172.234 L 307.800 175.800 309.234 175.920 C 311.156 176.081,311.537 175.500,311.680 172.183 L 311.800 169.400 324.500 169.294 L 337.200 169.189 337.200 164.394 L 337.200 159.600 335.267 159.600 C 334.203 159.600,333.213 159.720,333.067 159.867 M62.184 160.427 C 62.039 160.661,61.983 160.892,62.060 160.940 C 62.137 160.987,62.477 161.236,62.815 161.491 C 63.324 161.877,63.443 161.789,63.510 160.978 C 63.593 159.972,62.695 159.598,62.184 160.427 M62.800 166.800 C 62.800 167.240,62.941 167.600,63.114 167.600 C 63.287 167.600,63.429 167.240,63.429 166.800 C 63.429 166.360,63.287 166.000,63.114 166.000 C 62.941 166.000,62.800 166.360,62.800 166.800 M70.700 168.276 C 68.295 168.904,70.997 169.200,79.144 169.200 C 88.531 169.200,92.144 168.956,91.767 168.347 C 91.552 167.999,72.013 167.933,70.700 168.276 M101.600 172.120 C 101.600 176.819,101.620 176.800,96.720 176.800 L 92.800 176.800 92.800 180.800 L 92.800 184.800 78.033 184.800 C 69.911 184.800,62.981 184.909,62.633 185.043 C 60.580 185.830,63.585 186.000,79.600 186.000 L 97.200 186.000 97.200 182.000 L 97.200 178.000 101.200 178.000 L 105.200 178.000 105.200 173.200 L 105.200 168.400 103.400 168.400 L 101.600 168.400 101.600 172.120 M281.400 180.100 L 281.400 184.600 265.800 184.821 C 257.220 184.943,250.155 185.078,250.100 185.121 C 249.158 185.865,251.846 186.000,267.600 186.000 L 285.200 186.000 285.200 181.200 L 285.200 176.400 283.600 176.400 C 282.720 176.400,282.000 176.220,282.000 176.000 C 282.000 175.780,281.865 175.600,281.700 175.600 C 281.535 175.600,281.400 177.625,281.400 180.100 M341.400 180.100 L 341.400 184.600 321.800 184.810 C 311.020 184.925,302.155 185.060,302.100 185.110 C 301.245 185.883,304.081 186.000,323.612 186.000 L 345.225 186.000 345.112 181.100 L 345.000 176.200 343.500 176.331 C 342.613 176.409,342.000 176.286,342.000 176.031 C 342.000 175.794,341.865 175.600,341.700 175.600 C 341.535 175.600,341.400 177.625,341.400 180.100 M187.873 177.060 C 187.723 177.210,187.600 179.013,187.600 181.067 L 187.600 184.800 185.433 184.800 C 183.106 184.800,182.000 185.071,182.000 185.643 C 182.000 185.839,184.160 186.000,186.800 186.000 L 191.600 186.000 191.600 182.008 L 191.600 178.016 200.100 177.908 C 205.428 177.840,208.600 177.651,208.600 177.400 C 208.600 176.945,188.321 176.613,187.873 177.060 M242.000 177.600 C 242.000 178.101,242.424 178.101,243.200 177.600 C 243.685 177.286,243.628 177.211,242.900 177.206 C 242.405 177.203,242.000 177.380,242.000 177.600 M122.948 202.900 C 123.081 203.395,123.192 205.375,123.195 207.300 L 123.200 210.800 124.520 210.800 C 126.522 210.800,126.800 210.254,126.800 206.320 L 126.800 202.800 125.200 202.800 C 124.320 202.800,123.600 202.620,123.600 202.400 C 123.600 202.180,123.399 202.000,123.153 202.000 C 122.885 202.000,122.803 202.360,122.948 202.900 M242.948 202.900 C 243.081 203.395,243.192 205.375,243.195 207.300 L 243.200 210.800 244.520 210.800 C 246.522 210.800,246.800 210.254,246.800 206.320 L 246.800 202.800 245.200 202.800 C 244.320 202.800,243.600 202.620,243.600 202.400 C 243.600 202.180,243.399 202.000,243.153 202.000 C 242.885 202.000,242.803 202.360,242.948 202.900 M302.930 202.833 C 303.073 203.365,303.192 205.375,303.195 207.300 L 303.200 210.800 304.354 210.800 C 305.752 210.800,307.841 209.796,307.230 209.418 C 306.983 209.266,306.800 207.824,306.800 206.029 L 306.800 202.905 305.500 202.686 C 304.785 202.566,303.856 202.332,303.436 202.167 C 302.778 201.907,302.707 202.000,302.930 202.833 M37.692 210.900 L 37.800 219.000 39.137 219.128 C 41.826 219.386,42.000 218.853,42.000 210.338 L 42.000 202.800 39.792 202.800 L 37.583 202.800 37.692 210.900 M71.467 203.067 C 71.320 203.213,71.200 205.103,71.200 207.267 L 71.200 211.200 69.659 211.200 C 68.811 211.200,67.011 211.316,65.659 211.457 L 63.200 211.714 63.200 215.083 C 63.200 219.984,63.184 220.000,58.386 220.000 L 54.400 220.000 54.400 223.800 L 54.400 227.600 55.900 227.587 C 58.303 227.567,58.800 226.928,58.800 223.856 L 58.800 221.200 62.800 221.200 L 66.800 221.200 66.800 216.800 L 66.800 212.400 71.200 212.400 L 75.600 212.400 75.600 207.600 L 75.600 202.800 73.667 202.800 C 72.603 202.800,71.613 202.920,71.467 203.067 M157.600 206.800 L 157.600 210.800 159.100 210.787 C 161.639 210.766,162.000 210.202,162.000 206.256 L 162.000 202.800 159.800 202.800 L 157.600 202.800 157.600 206.800 M191.467 203.067 C 191.320 203.213,191.200 212.663,191.200 224.067 L 191.200 244.800 189.450 244.800 C 187.208 244.800,185.200 245.202,185.200 245.650 C 185.200 245.843,187.540 246.000,190.400 246.000 L 195.600 246.000 195.600 224.400 L 195.600 202.800 193.667 202.800 C 192.603 202.800,191.613 202.920,191.467 203.067 M371.467 203.067 C 371.320 203.213,371.200 205.100,371.200 207.259 L 371.200 211.184 362.900 211.292 L 354.600 211.400 354.496 228.100 L 354.391 244.800 352.646 244.800 C 350.407 244.800,348.400 245.202,348.400 245.650 C 348.400 245.843,350.740 246.000,353.600 246.000 L 358.800 246.000 358.813 244.900 C 358.820 244.295,358.815 236.735,358.800 228.100 L 358.775 212.400 367.187 212.400 L 375.600 212.400 375.600 207.600 L 375.600 202.800 373.667 202.800 C 372.603 202.800,371.613 202.920,371.467 203.067 M24.531 205.800 C 24.533 207.340,24.605 207.921,24.692 207.091 C 24.779 206.261,24.777 205.001,24.689 204.291 C 24.600 203.581,24.529 204.260,24.531 205.800 M170.200 209.600 C 170.064 209.820,170.334 210.000,170.800 210.000 C 171.266 210.000,171.536 209.820,171.400 209.600 C 171.264 209.380,170.994 209.200,170.800 209.200 C 170.606 209.200,170.336 209.380,170.200 209.600 M128.400 210.400 C 128.400 210.620,129.141 210.800,130.047 210.800 C 131.559 210.800,131.674 210.873,131.452 211.700 C 131.319 212.195,131.208 218.045,131.205 224.700 L 131.200 236.800 127.214 236.800 L 123.229 236.800 123.114 240.700 L 123.000 244.600 111.800 244.816 C 105.640 244.935,100.555 245.070,100.500 245.116 C 99.626 245.851,101.836 246.000,113.600 246.000 L 126.800 246.000 126.800 242.000 L 126.800 238.000 131.200 238.000 L 135.600 238.000 135.600 224.944 C 135.600 210.429,135.679 210.840,132.900 210.813 C 132.185 210.806,131.600 210.620,131.600 210.400 C 131.600 210.180,130.880 210.000,130.000 210.000 C 129.120 210.000,128.400 210.180,128.400 210.400 M162.800 210.400 C 162.800 210.620,163.520 210.800,164.400 210.800 C 165.280 210.800,166.000 210.620,166.000 210.400 C 166.000 210.180,165.280 210.000,164.400 210.000 C 163.520 210.000,162.800 210.180,162.800 210.400 M248.200 210.400 C 248.336 210.620,249.178 210.800,250.070 210.800 C 251.558 210.800,251.673 210.875,251.452 211.700 C 251.319 212.195,251.208 214.265,251.205 216.300 L 251.200 220.000 247.200 220.000 L 243.200 220.000 243.200 223.800 L 243.200 227.600 244.520 227.600 C 246.430 227.600,246.800 227.003,246.800 223.920 L 246.800 221.200 251.212 221.200 L 255.624 221.200 255.512 216.100 L 255.400 211.000 253.500 210.878 C 252.455 210.811,251.600 210.586,251.600 210.378 C 251.600 210.170,250.779 210.000,249.776 210.000 C 248.663 210.000,248.049 210.156,248.200 210.400 M308.200 210.400 C 308.336 210.620,309.157 210.800,310.024 210.800 C 310.891 210.800,311.600 210.620,311.600 210.400 C 311.600 210.180,310.779 210.000,309.776 210.000 C 308.663 210.000,308.049 210.156,308.200 210.400 M166.184 212.157 C 166.058 212.841,166.009 214.660,166.077 216.200 L 166.200 219.000 167.634 219.120 C 169.741 219.297,170.052 218.673,169.916 214.540 L 169.800 211.000 168.107 210.957 C 166.517 210.916,166.401 210.989,166.184 212.157 M311.900 211.545 C 311.257 212.209,311.200 213.583,311.200 228.534 L 311.200 244.800 309.450 244.800 C 307.208 244.800,305.200 245.202,305.200 245.650 C 305.200 245.843,307.542 246.000,310.404 246.000 L 315.608 246.000 315.504 228.500 L 315.400 211.000 314.000 210.912 C 313.085 210.854,312.357 211.074,311.900 211.545 M99.400 211.557 L 97.800 211.800 97.800 223.800 L 97.800 235.800 99.137 235.928 C 101.968 236.199,102.000 236.062,102.000 223.538 L 102.000 212.400 110.167 212.400 C 118.182 212.400,119.600 212.273,119.600 211.557 C 119.600 211.164,101.987 211.164,99.400 211.557 M217.770 211.733 C 217.658 212.027,217.618 213.782,217.683 215.633 L 217.800 219.000 219.137 219.128 C 221.316 219.337,222.000 218.384,222.000 215.138 L 222.000 212.400 230.000 212.400 C 237.810 212.400,238.000 212.420,238.000 213.224 C 238.000 213.685,238.181 213.936,238.411 213.793 C 238.636 213.654,238.771 213.238,238.711 212.870 C 238.627 212.363,238.989 212.149,240.200 211.992 L 241.800 211.783 240.200 211.496 C 237.100 210.940,217.997 211.142,217.770 211.733 M279.400 211.557 L 277.800 211.800 277.692 219.700 L 277.583 227.600 279.092 227.587 C 281.938 227.563,282.000 227.389,282.000 219.456 L 282.000 212.400 290.167 212.400 C 298.182 212.400,299.600 212.273,299.600 211.557 C 299.600 211.164,281.987 211.164,279.400 211.557 M332.300 211.476 C 330.289 212.001,332.131 212.400,336.567 212.400 C 341.533 212.400,342.800 212.229,342.800 211.557 C 342.800 211.201,333.626 211.129,332.300 211.476 M24.573 224.400 C 24.573 229.790,24.630 231.995,24.699 229.300 C 24.768 226.605,24.768 222.195,24.699 219.500 C 24.630 216.805,24.573 219.010,24.573 224.400 M157.867 220.267 C 157.720 220.413,157.600 225.993,157.600 232.667 L 157.600 244.800 155.850 244.800 C 153.608 244.800,151.600 245.202,151.600 245.650 C 151.600 245.843,153.960 246.000,156.844 246.000 L 162.087 246.000 161.944 233.000 L 161.800 220.001 159.967 220.000 C 158.958 220.000,158.013 220.120,157.867 220.267 M174.667 220.267 C 174.520 220.413,174.400 222.213,174.400 224.267 L 174.400 228.000 172.650 228.000 C 170.408 228.000,168.400 228.402,168.400 228.850 C 168.400 229.433,177.882 229.286,178.103 228.700 C 178.207 228.425,178.326 226.615,178.367 224.678 C 178.408 222.741,178.542 220.896,178.664 220.578 C 178.897 219.971,175.246 219.687,174.667 220.267 M247.800 227.200 C 247.936 227.420,248.857 227.600,249.847 227.600 C 250.945 227.600,251.551 227.444,251.400 227.200 C 251.264 226.980,250.343 226.800,249.353 226.800 C 248.255 226.800,247.649 226.956,247.800 227.200 M64.100 228.144 C 63.264 228.558,63.200 228.851,63.200 232.295 L 63.200 236.000 64.520 236.000 C 66.494 236.000,66.800 235.436,66.800 231.800 C 66.800 227.739,66.296 227.057,64.100 228.144 M37.867 228.267 C 37.720 228.413,37.600 232.193,37.600 236.667 L 37.600 244.800 35.850 244.800 C 33.608 244.800,31.600 245.202,31.600 245.650 C 31.600 245.843,33.940 246.000,36.800 246.000 L 42.000 246.000 42.058 238.900 C 42.090 234.995,42.076 231.215,42.027 230.500 L 41.937 229.200 45.669 229.192 C 47.721 229.188,50.300 228.934,51.400 228.628 C 53.298 228.100,53.011 228.070,45.767 228.036 C 41.568 228.016,38.013 228.120,37.867 228.267 M217.770 228.533 C 217.658 228.827,217.618 230.582,217.683 232.433 L 217.800 235.800 219.137 235.928 C 221.313 236.137,222.000 235.183,222.000 231.953 L 222.000 229.230 230.500 229.078 C 244.642 228.823,244.353 228.100,230.087 228.046 C 220.329 228.009,217.935 228.104,217.770 228.533 M251.467 228.667 C 251.320 228.813,251.200 230.703,251.200 232.867 L 251.200 236.800 247.214 236.800 L 243.229 236.800 243.114 240.700 L 243.000 244.600 227.400 244.821 C 218.820 244.943,211.755 245.078,211.700 245.121 C 210.758 245.865,213.446 246.000,229.200 246.000 L 246.800 246.000 246.800 242.000 L 246.800 238.000 251.200 238.000 L 255.600 238.000 255.600 233.200 L 255.600 228.400 253.667 228.400 C 252.603 228.400,251.613 228.520,251.467 228.667 M71.467 236.667 C 71.320 236.813,71.200 238.703,71.200 240.867 L 71.200 244.800 69.450 244.800 C 67.208 244.800,65.200 245.202,65.200 245.650 C 65.200 245.843,67.540 246.000,70.400 246.000 L 75.600 246.000 75.600 241.200 L 75.600 236.400 73.667 236.400 C 72.603 236.400,71.613 236.520,71.467 236.667 M57.900 237.076 C 56.942 237.326,57.015 238.000,58.000 238.000 C 58.444 238.000,58.800 237.733,58.800 237.400 C 58.800 237.070,58.755 236.821,58.700 236.846 C 58.645 236.872,58.285 236.975,57.900 237.076 M92.227 237.159 C 91.672 237.376,91.592 237.548,91.946 237.766 C 92.544 238.136,93.600 237.782,93.600 237.213 C 93.600 236.741,93.321 236.731,92.227 237.159 M277.867 237.067 C 277.720 237.213,277.600 239.013,277.600 241.067 L 277.600 244.800 275.850 244.800 C 274.887 244.800,273.538 244.913,272.850 245.050 C 270.146 245.591,271.847 246.000,276.800 246.000 L 282.000 246.000 282.000 242.000 L 282.000 238.000 290.176 238.000 C 298.480 238.000,301.271 237.526,295.728 237.058 C 291.716 236.719,278.208 236.725,277.867 237.067 " stroke="none" fill="#04f1f1" fill-rule="evenodd"></path><path id="path1" d="M63.359 141.900 C 63.069 142.369,63.034 143.591,63.254 145.600 C 63.748 150.126,63.870 150.000,58.973 150.000 L 54.800 150.000 54.800 154.800 L 54.800 159.600 56.800 159.600 L 58.800 159.600 58.800 155.427 C 58.800 150.755,58.858 150.668,61.909 150.809 C 62.729 150.847,64.249 150.860,65.286 150.839 L 67.172 150.800 67.286 146.700 L 67.400 142.600 82.567 142.400 C 94.200 142.247,97.772 142.084,97.900 141.700 C 98.202 140.793,63.921 140.992,63.359 141.900 M114.800 162.800 L 114.800 184.400 116.796 184.400 L 118.793 184.400 118.896 163.500 L 119.000 142.600 133.967 142.400 C 145.440 142.247,148.973 142.083,149.100 141.700 C 149.232 141.305,145.642 141.200,132.033 141.200 L 114.800 141.200 114.800 162.800 M182.800 145.600 L 182.800 150.000 178.800 150.000 L 174.800 150.000 174.800 167.200 L 174.800 184.400 176.800 184.400 L 178.800 184.400 178.800 167.843 C 178.800 153.114,178.870 151.259,179.433 151.043 C 179.781 150.909,181.664 150.800,183.619 150.800 L 187.172 150.800 187.286 146.700 L 187.400 142.600 198.167 142.400 C 206.280 142.249,208.975 142.077,209.100 141.700 C 209.231 141.307,206.442 141.200,196.033 141.200 L 182.800 141.200 182.800 145.600 M242.800 145.600 L 242.800 150.000 238.800 150.000 L 234.800 150.000 234.800 163.200 L 234.800 176.400 236.800 176.400 L 238.800 176.400 238.800 163.808 L 238.800 151.215 239.700 151.008 C 240.195 150.895,242.040 150.756,243.800 150.701 L 247.000 150.600 247.200 146.600 L 247.400 142.600 261.600 142.354 C 278.784 142.056,278.000 142.092,278.000 141.600 C 278.000 141.339,271.867 141.200,260.400 141.200 L 242.800 141.200 242.800 145.600 M294.800 162.800 L 294.800 184.400 296.800 184.400 L 298.800 184.400 298.800 163.624 C 298.800 148.640,298.926 142.770,299.251 142.569 C 299.499 142.415,308.184 142.232,318.551 142.162 C 328.918 142.091,337.535 142.026,337.700 142.017 C 337.865 142.007,338.000 141.820,338.000 141.600 C 338.000 141.338,330.533 141.200,316.400 141.200 L 294.800 141.200 294.800 162.800 M156.800 150.400 C 156.800 150.620,157.070 150.800,157.400 150.800 C 157.730 150.800,158.000 150.620,158.000 150.400 C 158.000 150.180,157.730 150.000,157.400 150.000 C 157.070 150.000,156.800 150.180,156.800 150.400 M216.800 150.400 C 216.800 150.620,217.070 150.800,217.400 150.800 C 217.730 150.800,218.000 150.620,218.000 150.400 C 218.000 150.180,217.730 150.000,217.400 150.000 C 217.070 150.000,216.800 150.180,216.800 150.400 M148.685 152.248 C 148.528 152.405,148.400 155.740,148.400 159.659 L 148.400 166.784 139.999 166.892 C 134.738 166.960,131.599 167.149,131.599 167.400 C 131.598 167.899,142.608 168.154,148.309 167.787 L 152.417 167.522 152.309 159.861 L 152.200 152.200 150.585 152.081 C 149.698 152.016,148.843 152.091,148.685 152.248 M208.685 152.248 C 208.528 152.405,208.400 155.740,208.400 159.659 L 208.400 166.784 199.999 166.892 C 194.823 166.959,191.561 167.154,191.499 167.400 C 191.392 167.830,209.876 168.203,211.509 167.803 L 212.417 167.580 212.309 159.890 L 212.200 152.200 210.585 152.081 C 209.698 152.016,208.843 152.091,208.685 152.248 M71.600 158.492 C 71.601 159.136,89.132 159.242,89.297 158.600 C 89.363 158.345,86.183 158.161,80.500 158.092 C 73.518 158.008,71.600 158.094,71.600 158.492 M311.478 158.256 C 311.337 158.396,311.308 158.651,311.413 158.821 C 311.701 159.287,328.975 158.876,329.133 158.400 C 329.281 157.957,311.918 157.815,311.478 158.256 M63.584 160.900 C 63.575 160.955,63.544 162.440,63.516 164.200 L 63.464 167.400 65.232 167.400 L 67.000 167.400 67.116 164.100 L 67.232 160.800 65.416 160.800 C 64.417 160.800,63.593 160.845,63.584 160.900 M96.400 167.200 C 96.400 167.420,96.760 167.600,97.200 167.600 C 97.640 167.600,98.000 167.420,98.000 167.200 C 98.000 166.980,97.640 166.800,97.200 166.800 C 96.760 166.800,96.400 166.980,96.400 167.200 M88.400 172.000 L 88.400 174.800 71.600 174.800 L 54.800 174.800 54.800 179.600 L 54.800 184.400 56.800 184.400 L 58.800 184.400 58.806 180.700 C 58.809 178.665,58.951 176.781,59.122 176.513 C 59.355 176.146,63.473 176.007,75.916 175.947 L 92.400 175.868 92.400 172.534 L 92.400 169.200 90.400 169.200 L 88.400 169.200 88.400 172.000 M251.600 175.405 C 251.600 176.227,277.626 176.123,277.900 175.300 C 278.031 174.907,275.242 174.800,264.833 174.800 C 253.284 174.800,251.600 174.877,251.600 175.405 M311.600 175.400 C 311.600 175.921,313.263 176.000,324.167 176.000 C 336.445 176.000,338.226 175.890,337.774 175.158 C 337.350 174.472,311.600 174.710,311.600 175.400 M208.400 181.000 L 208.400 184.400 210.400 184.400 L 212.400 184.400 212.400 181.000 L 212.400 177.600 210.400 177.600 L 208.400 177.600 208.400 181.000 M242.800 181.021 L 242.800 184.442 244.900 184.321 L 247.000 184.200 247.116 180.900 L 247.232 177.600 245.016 177.600 L 242.800 177.600 242.800 181.021 M25.012 201.887 C 24.857 202.279,24.700 211.960,24.665 223.400 L 24.600 244.200 26.600 244.200 L 28.600 244.200 28.800 223.400 L 29.000 202.600 31.507 202.400 C 35.669 202.068,34.630 201.411,29.748 201.287 C 25.788 201.187,25.264 201.254,25.012 201.887 M58.800 205.600 L 58.800 210.000 54.400 210.000 L 50.000 210.000 50.000 213.986 L 50.000 217.973 45.700 218.086 C 39.064 218.262,40.539 218.981,47.799 219.110 L 54.000 219.220 54.000 215.253 C 54.000 210.583,53.766 210.800,58.819 210.800 L 62.372 210.800 62.486 206.700 L 62.600 202.600 64.600 202.495 C 70.268 202.199,69.324 201.200,63.376 201.200 L 58.800 201.200 58.800 205.600 M93.200 205.586 L 93.200 209.973 88.900 210.086 L 84.600 210.200 84.514 222.400 C 84.415 236.369,84.420 236.400,87.068 236.400 L 88.800 236.400 88.800 223.847 L 88.800 211.293 89.700 211.052 C 90.195 210.919,92.079 210.808,93.886 210.805 L 97.172 210.800 97.286 206.700 L 97.400 202.600 108.367 202.400 C 116.640 202.249,119.375 202.077,119.500 201.700 C 119.631 201.307,116.842 201.200,106.433 201.200 L 93.200 201.200 93.200 205.586 M144.400 222.821 L 144.400 244.442 146.500 244.321 L 148.600 244.200 148.800 223.400 L 149.000 202.600 151.500 202.481 C 153.364 202.392,154.000 202.214,154.000 201.781 C 154.000 201.305,153.130 201.200,149.200 201.200 L 144.400 201.200 144.400 222.821 M178.267 201.467 C 178.120 201.613,178.000 203.593,178.000 205.867 L 178.000 210.000 174.000 210.000 L 170.000 210.000 170.000 213.967 C 170.000 216.149,169.891 218.219,169.757 218.567 C 169.554 219.098,169.876 219.200,171.757 219.200 L 174.000 219.200 174.000 215.243 C 174.000 210.585,173.767 210.800,178.819 210.800 L 182.372 210.800 182.486 206.700 L 182.600 202.600 185.100 202.481 C 186.964 202.392,187.600 202.214,187.600 201.781 C 187.600 201.170,178.858 200.875,178.267 201.467 M204.400 222.821 L 204.400 244.442 206.500 244.321 L 208.600 244.200 208.800 223.400 L 209.000 202.600 224.200 202.388 C 232.560 202.271,239.445 202.136,239.500 202.088 C 240.363 201.329,237.825 201.200,222.000 201.200 L 204.400 201.200 204.400 222.821 M273.200 205.600 L 273.200 210.000 268.800 210.000 L 264.400 210.000 264.400 227.221 L 264.400 244.442 266.500 244.321 L 268.600 244.200 268.704 227.746 L 268.809 211.291 269.704 211.051 C 270.197 210.919,272.079 210.808,273.886 210.805 L 277.172 210.800 277.286 206.700 L 277.400 202.600 288.367 202.400 C 296.640 202.249,299.375 202.077,299.500 201.700 C 299.631 201.307,296.842 201.200,286.433 201.200 L 273.200 201.200 273.200 205.600 M324.400 206.021 L 324.400 210.842 326.500 210.721 L 328.600 210.600 328.800 206.600 L 329.000 202.600 348.167 202.400 C 363.001 202.245,367.371 202.087,367.500 201.700 C 367.632 201.304,363.162 201.200,346.033 201.200 L 324.400 201.200 324.400 206.021 M126.800 210.400 C 126.800 210.620,127.160 210.800,127.600 210.800 C 128.040 210.800,128.400 210.620,128.400 210.400 C 128.400 210.180,128.040 210.000,127.600 210.000 C 127.160 210.000,126.800 210.180,126.800 210.400 M161.200 210.400 C 161.200 210.620,161.560 210.800,162.000 210.800 C 162.440 210.800,162.800 210.620,162.800 210.400 C 162.800 210.180,162.440 210.000,162.000 210.000 C 161.560 210.000,161.200 210.180,161.200 210.400 M246.800 210.400 C 246.800 210.620,247.171 210.800,247.624 210.800 C 248.077 210.800,248.336 210.620,248.200 210.400 C 248.064 210.180,247.693 210.000,247.376 210.000 C 247.059 210.000,246.800 210.180,246.800 210.400 M306.800 210.400 C 306.800 210.620,307.171 210.800,307.624 210.800 C 308.077 210.800,308.336 210.620,308.200 210.400 C 308.064 210.180,307.693 210.000,307.376 210.000 C 307.059 210.000,306.800 210.180,306.800 210.400 M119.086 212.248 C 118.929 212.405,118.800 217.540,118.800 223.659 L 118.800 234.784 110.199 234.892 C 97.573 235.050,98.789 235.773,111.906 235.907 L 122.412 236.013 122.306 224.107 L 122.200 212.200 120.786 212.081 C 120.008 212.015,119.243 212.090,119.086 212.248 M238.922 212.248 C 238.660 212.360,238.537 212.692,238.650 212.985 C 238.762 213.279,238.662 213.638,238.427 213.783 C 238.192 213.928,238.000 214.933,238.000 216.015 L 238.000 217.984 229.700 218.092 C 224.546 218.159,221.400 218.351,221.400 218.597 C 221.400 218.850,225.186 218.995,231.800 218.997 L 242.200 219.000 242.200 215.600 L 242.200 212.200 240.800 212.122 C 240.030 212.079,239.185 212.136,238.922 212.248 M298.700 212.267 C 298.067 212.440,298.000 213.140,298.000 219.629 L 298.000 226.800 289.600 226.800 C 284.375 226.800,281.200 226.948,281.200 227.192 C 281.200 227.916,282.948 228.026,292.600 227.913 L 302.200 227.800 302.200 220.000 L 302.200 212.200 300.800 212.137 C 300.030 212.103,299.085 212.161,298.700 212.267 M341.700 212.255 C 341.312 212.419,341.200 216.044,341.200 228.454 L 341.200 244.442 343.300 244.321 L 345.400 244.200 345.400 228.200 L 345.400 212.200 343.800 212.122 C 342.920 212.079,341.975 212.139,341.700 212.255 M161.768 221.340 C 161.654 221.637,161.615 223.122,161.680 224.640 L 161.800 227.400 163.600 227.400 L 165.400 227.400 165.516 224.100 L 165.632 220.800 163.804 220.800 C 162.638 220.800,161.900 220.996,161.768 221.340 M178.316 224.300 C 178.238 226.225,178.125 231.545,178.066 236.122 L 177.958 244.443 180.079 244.322 L 182.200 244.200 182.306 232.500 L 182.412 220.800 180.435 220.800 L 178.459 220.800 178.316 224.300 M58.000 227.200 C 58.000 227.420,58.360 227.600,58.800 227.600 C 59.240 227.600,59.600 227.420,59.600 227.200 C 59.600 226.980,59.240 226.800,58.800 226.800 C 58.360 226.800,58.000 226.980,58.000 227.200 M246.600 227.200 C 246.464 227.420,246.734 227.600,247.200 227.600 C 247.666 227.600,247.936 227.420,247.800 227.200 C 247.664 226.980,247.394 226.800,247.200 226.800 C 247.006 226.800,246.736 226.980,246.600 227.200 M50.285 229.048 C 50.128 229.205,50.000 230.923,50.000 232.867 L 50.000 236.400 52.015 236.400 L 54.030 236.400 53.915 232.700 L 53.800 229.000 52.185 228.881 C 51.298 228.816,50.443 228.891,50.285 229.048 M238.627 229.150 C 238.093 229.365,238.000 229.553,238.328 229.755 C 238.662 229.962,238.684 230.270,238.401 230.798 C 238.180 231.210,238.000 232.276,238.000 233.166 L 238.000 234.784 229.700 234.892 C 224.505 234.960,221.400 235.150,221.400 235.400 C 221.400 235.656,225.133 235.800,231.800 235.800 L 242.200 235.800 242.200 232.400 L 242.200 229.000 240.800 228.919 C 240.030 228.874,239.052 228.978,238.627 229.150 M66.617 235.172 C 66.491 235.377,66.554 235.648,66.757 235.774 C 67.279 236.096,68.442 235.591,68.174 235.158 C 67.884 234.689,66.910 234.698,66.617 235.172 M58.800 241.023 L 58.800 244.446 60.500 244.323 L 62.200 244.200 62.316 240.900 L 62.432 237.600 60.616 237.600 L 58.800 237.600 58.800 241.023 M93.200 241.000 L 93.200 244.400 95.200 244.400 L 97.200 244.400 97.200 241.000 L 97.200 237.600 95.200 237.600 L 93.200 237.600 93.200 241.000 M298.267 237.867 C 298.120 238.013,298.000 239.553,298.000 241.288 L 298.000 244.442 300.100 244.321 L 302.200 244.200 302.316 240.900 L 302.432 237.600 300.483 237.600 C 299.411 237.600,298.413 237.720,298.267 237.867 " stroke="none" fill="#f207f3" fill-rule="evenodd"></path><path id="path2" d="M67.867 143.467 C 67.504 143.829,67.539 150.100,67.906 150.600 C 68.096 150.859,73.942 150.954,84.500 150.868 L 100.800 150.737 100.800 146.968 L 100.800 143.200 84.467 143.200 C 75.483 143.200,68.013 143.320,67.867 143.467 M119.391 143.700 C 119.290 143.975,119.161 153.440,119.104 164.732 L 119.000 185.265 120.800 185.017 C 121.790 184.881,123.629 184.670,124.886 184.550 L 127.173 184.330 127.286 180.265 L 127.400 176.200 139.900 176.094 L 152.400 175.989 152.400 172.443 C 152.400 168.094,152.419 168.075,157.141 167.740 L 160.800 167.480 160.800 159.126 L 160.800 150.771 157.100 151.040 C 155.065 151.188,153.339 151.360,153.266 151.422 C 153.192 151.485,153.140 154.839,153.152 158.876 C 153.178 168.060,153.249 167.778,150.879 167.908 C 143.738 168.300,135.526 168.422,131.700 168.192 L 127.200 167.921 127.200 159.603 C 127.200 152.388,127.284 151.253,127.833 151.043 C 128.181 150.909,133.851 150.800,140.433 150.800 L 152.400 150.800 152.400 147.000 L 152.400 143.200 135.987 143.200 C 123.222 143.200,119.534 143.311,119.391 143.700 M187.867 143.467 C 187.504 143.829,187.539 150.098,187.906 150.606 C 188.098 150.871,192.405 150.962,200.300 150.867 L 212.400 150.721 212.400 146.960 L 212.400 143.200 200.267 143.200 C 193.593 143.200,188.013 143.320,187.867 143.467 M247.867 143.467 C 247.504 143.829,247.539 150.100,247.906 150.600 C 248.096 150.859,253.942 150.954,264.500 150.868 L 280.800 150.737 280.800 146.968 L 280.800 143.200 264.467 143.200 C 255.483 143.200,248.013 143.320,247.867 143.467 M299.391 143.700 C 299.290 143.975,299.161 153.440,299.104 164.732 L 299.000 185.265 300.800 184.988 C 301.790 184.836,311.195 184.636,321.700 184.544 L 340.800 184.378 340.800 180.589 L 340.800 176.800 325.900 176.769 C 317.705 176.752,310.190 176.707,309.200 176.669 L 307.400 176.600 307.285 172.433 C 307.140 167.169,305.941 167.613,320.300 167.606 L 332.400 167.600 332.400 163.800 L 332.400 160.000 321.700 159.958 C 315.815 159.934,310.508 159.948,309.908 159.987 C 307.325 160.157,307.200 159.946,307.200 155.416 C 307.200 150.275,305.218 150.800,324.633 150.800 L 340.800 150.800 340.800 147.000 L 340.800 143.200 320.187 143.200 C 304.062 143.200,299.535 143.309,299.391 143.700 M64.000 151.190 C 63.670 151.409,62.455 151.591,61.300 151.594 L 59.200 151.600 59.200 155.414 L 59.200 159.229 63.100 159.114 L 67.000 159.000 67.000 155.000 L 67.000 151.000 65.800 150.896 C 65.140 150.838,64.330 150.971,64.000 151.190 M183.800 151.191 C 183.360 151.385,182.145 151.556,181.100 151.572 L 179.200 151.600 179.200 167.767 C 179.200 176.659,179.083 184.240,178.940 184.612 C 178.710 185.213,178.904 185.260,180.640 185.030 C 181.718 184.886,183.629 184.670,184.886 184.550 L 187.173 184.330 187.286 180.265 L 187.400 176.200 199.910 176.094 C 211.545 175.996,212.441 176.038,212.710 176.694 C 213.113 177.675,213.049 183.637,212.627 184.545 C 212.306 185.234,212.427 185.271,214.240 185.030 C 215.318 184.886,217.235 184.670,218.500 184.549 L 220.800 184.329 220.800 167.550 L 220.800 150.771 217.100 151.040 C 215.065 151.188,213.324 151.376,213.230 151.457 C 213.137 151.539,213.105 154.890,213.159 158.903 C 213.218 163.270,213.089 166.642,212.839 167.300 L 212.420 168.400 203.110 168.398 C 197.989 168.396,192.319 168.280,190.508 168.139 L 187.216 167.883 187.108 159.441 L 187.000 151.000 185.800 150.919 C 185.140 150.874,184.240 150.996,183.800 151.191 M243.800 151.191 C 243.360 151.385,242.145 151.556,241.100 151.572 L 239.200 151.600 239.200 163.800 L 239.200 176.000 243.206 176.000 L 247.211 176.000 247.106 163.500 L 247.000 151.000 245.800 150.919 C 245.140 150.874,244.240 150.996,243.800 151.191 M69.286 159.924 L 67.573 160.047 67.686 164.124 L 67.800 168.200 69.400 168.063 C 70.280 167.988,75.815 167.847,81.700 167.751 L 92.400 167.575 92.400 163.800 L 92.400 160.025 81.700 159.913 C 75.815 159.851,70.229 159.856,69.286 159.924 M97.883 167.851 C 97.745 167.989,96.590 168.124,95.316 168.151 L 93.000 168.200 92.885 172.115 L 92.771 176.029 96.685 175.915 L 100.600 175.800 100.714 171.700 L 100.828 167.600 99.481 167.600 C 98.740 167.600,98.021 167.713,97.883 167.851 M249.300 176.723 L 247.600 176.846 247.600 181.063 L 247.600 185.281 249.500 184.994 C 250.545 184.837,258.015 184.634,266.100 184.544 L 280.800 184.381 280.800 180.600 L 280.800 176.819 265.900 176.709 C 257.705 176.649,250.235 176.655,249.300 176.723 M59.409 177.300 C 59.317 177.575,59.188 179.480,59.121 181.532 L 59.000 185.265 60.800 184.986 C 61.790 184.833,69.305 184.634,77.500 184.544 L 92.400 184.381 92.400 180.591 L 92.400 176.800 75.987 176.800 C 63.213 176.800,59.538 176.911,59.409 177.300 M29.467 203.467 C 29.320 203.613,29.200 213.082,29.200 224.509 L 29.200 245.284 30.900 245.041 C 31.835 244.907,33.635 244.687,34.900 244.551 L 37.200 244.304 37.200 236.195 C 37.200 226.541,36.087 227.600,46.233 227.600 L 54.000 227.600 54.000 223.800 L 54.000 220.000 47.500 219.942 C 43.925 219.910,40.407 219.925,39.681 219.975 C 37.257 220.144,37.200 219.943,37.200 211.151 L 37.200 203.200 33.467 203.200 C 31.413 203.200,29.613 203.320,29.467 203.467 M63.200 207.257 L 63.200 211.314 65.659 211.057 C 67.011 210.916,68.721 210.800,69.459 210.800 L 70.800 210.800 70.800 207.000 L 70.800 203.200 67.000 203.200 L 63.200 203.200 63.200 207.257 M97.867 203.467 C 97.720 203.613,97.600 205.439,97.600 207.524 L 97.600 211.314 100.059 211.057 C 101.411 210.916,106.991 210.800,112.459 210.800 L 122.400 210.800 122.400 207.000 L 122.400 203.200 110.267 203.200 C 103.593 203.200,98.013 203.320,97.867 203.467 M149.467 203.467 C 149.320 203.613,149.200 213.082,149.200 224.509 L 149.200 245.284 150.900 245.041 C 151.835 244.907,153.632 244.687,154.894 244.551 L 157.189 244.305 157.294 231.852 L 157.400 219.400 161.400 219.200 L 165.400 219.000 165.400 215.000 L 165.400 211.000 161.300 211.148 L 157.200 211.295 157.200 207.248 L 157.200 203.200 153.467 203.200 C 151.413 203.200,149.613 203.320,149.467 203.467 M183.200 206.986 C 183.200 211.582,183.180 211.600,178.026 211.600 L 174.400 211.600 174.400 215.400 L 174.400 219.200 178.410 219.200 C 183.580 219.200,183.251 218.214,183.111 233.288 L 183.000 245.265 184.800 245.019 C 185.790 244.884,187.545 244.673,188.700 244.550 L 190.800 244.326 190.800 223.763 L 190.800 203.200 187.000 203.200 L 183.200 203.200 183.200 206.986 M209.467 203.467 C 209.320 203.613,209.200 213.082,209.200 224.509 L 209.200 245.284 210.900 244.996 C 211.835 244.837,219.305 244.632,227.500 244.540 L 242.400 244.372 242.400 240.586 L 242.400 236.800 231.700 236.761 C 225.815 236.740,220.300 236.755,219.445 236.796 C 217.386 236.893,217.213 236.518,217.206 231.943 C 217.199 227.156,215.847 227.600,230.433 227.600 L 242.400 227.600 242.400 223.800 L 242.400 220.000 231.700 219.959 C 225.815 219.937,220.406 219.952,219.680 219.992 C 217.478 220.113,217.200 219.575,217.200 215.194 C 217.200 210.348,215.838 210.800,230.433 210.800 L 242.400 210.800 242.400 207.000 L 242.400 203.200 226.067 203.200 C 217.083 203.200,209.613 203.320,209.467 203.467 M277.867 203.467 C 277.720 203.613,277.600 205.439,277.600 207.524 L 277.600 211.314 280.059 211.057 C 281.411 210.916,286.991 210.800,292.459 210.800 L 302.400 210.800 302.400 207.000 L 302.400 203.200 290.267 203.200 C 283.593 203.200,278.013 203.320,277.867 203.467 M329.467 203.467 C 329.130 203.803,329.126 209.484,329.462 210.737 C 329.686 211.574,329.867 211.644,331.156 211.392 C 333.094 211.014,343.938 210.698,345.087 210.986 L 346.000 211.215 346.000 228.250 L 346.000 245.284 347.700 245.041 C 348.635 244.907,350.435 244.687,351.700 244.551 L 354.000 244.304 354.000 227.795 C 354.000 213.110,354.070 211.259,354.633 211.043 C 354.981 210.909,358.761 210.800,363.033 210.800 L 370.800 210.800 370.800 207.000 L 370.800 203.200 350.267 203.200 C 338.973 203.200,329.613 203.320,329.467 203.467 M59.200 211.200 C 58.870 211.413,57.655 211.591,56.500 211.594 L 54.400 211.600 54.400 215.414 L 54.400 219.229 58.300 219.114 L 62.200 219.000 62.314 214.900 L 62.428 210.800 61.114 210.806 C 60.391 210.809,59.530 210.987,59.200 211.200 M93.800 211.191 C 93.360 211.385,92.142 211.556,91.094 211.572 L 89.188 211.600 89.294 223.700 L 89.400 235.800 93.306 235.915 L 97.211 236.029 97.106 223.515 L 97.000 211.000 95.800 210.919 C 95.140 210.874,94.240 210.996,93.800 211.191 M128.290 211.043 C 128.136 211.197,127.062 211.297,125.905 211.264 C 122.834 211.177,122.988 210.481,123.111 223.900 L 123.223 236.000 127.011 236.000 L 130.800 236.000 130.860 224.000 C 130.893 217.400,130.938 211.775,130.960 211.500 C 131.003 210.962,128.756 210.577,128.290 211.043 M245.932 211.200 C 242.705 211.442,242.973 211.031,243.128 215.500 L 243.257 219.200 247.028 219.200 L 250.800 219.200 250.800 215.833 C 250.800 213.981,250.901 212.202,251.025 211.879 C 251.308 211.142,249.651 210.921,245.932 211.200 M273.600 211.189 C 273.270 211.409,272.145 211.591,271.100 211.594 L 269.200 211.600 269.200 228.442 L 269.200 245.284 270.900 245.041 C 271.835 244.907,273.635 244.687,274.900 244.551 L 277.200 244.304 277.200 240.785 C 277.200 235.479,275.805 236.000,290.027 236.000 L 302.368 236.000 302.830 237.544 C 303.085 238.393,303.223 240.478,303.137 242.177 L 302.981 245.266 304.791 245.020 C 305.786 244.884,307.545 244.673,308.700 244.550 L 310.800 244.326 310.800 228.187 C 310.800 216.189,310.922 211.972,311.273 211.755 C 312.182 211.193,310.247 210.838,307.400 211.043 C 302.482 211.398,302.982 210.413,303.125 219.469 C 303.237 226.628,303.183 227.423,302.548 227.887 C 301.780 228.449,286.704 228.621,280.508 228.139 L 277.216 227.883 277.108 219.441 L 277.000 211.000 275.600 210.896 C 274.830 210.838,273.930 210.970,273.600 211.189 M167.681 219.924 L 165.962 220.048 166.030 224.261 L 166.097 228.475 167.748 228.217 C 168.657 228.076,170.435 227.863,171.700 227.744 L 174.000 227.529 174.000 223.800 L 174.000 220.071 171.700 219.936 C 170.435 219.861,168.626 219.856,167.681 219.924 M59.483 227.851 C 59.345 227.989,58.190 228.124,56.916 228.151 L 54.600 228.200 54.486 232.100 L 54.371 236.000 58.386 236.000 L 62.400 236.000 62.400 231.800 L 62.400 227.600 61.067 227.600 C 60.333 227.600,59.621 227.713,59.483 227.851 M245.531 227.961 C 242.757 228.259,242.974 227.867,243.128 232.300 L 243.257 236.000 247.028 236.000 L 250.800 236.000 250.800 232.424 C 250.800 230.457,250.980 228.736,251.200 228.600 C 252.717 227.663,250.569 227.421,245.531 227.961 M64.600 236.718 L 63.000 236.836 63.000 241.050 L 63.000 245.264 64.800 245.019 C 65.790 244.884,67.545 244.673,68.700 244.550 L 70.800 244.326 70.800 240.599 L 70.800 236.871 68.500 236.736 C 67.235 236.661,65.480 236.653,64.600 236.718 M99.300 236.723 L 97.600 236.846 97.600 240.390 C 97.600 242.340,97.483 244.240,97.340 244.612 C 97.109 245.215,97.298 245.258,99.040 245.002 C 100.118 244.844,105.815 244.638,111.700 244.545 L 122.400 244.375 122.400 240.600 L 122.400 236.825 111.700 236.713 C 105.815 236.651,100.235 236.655,99.300 236.723 " stroke="none" fill="#fbfbfb" fill-rule="evenodd"></path><path id="path3" d="M82.600 142.400 L 67.400 142.600 67.286 146.700 C 67.223 148.955,67.313 150.800,67.486 150.801 C 67.659 150.801,67.800 149.136,67.800 147.101 L 67.800 143.400 84.200 143.193 C 93.220 143.080,100.030 142.945,99.333 142.893 C 98.637 142.842,98.007 142.665,97.933 142.500 C 97.860 142.335,90.960 142.290,82.600 142.400 M134.000 142.400 L 119.000 142.600 118.993 163.600 L 118.985 184.600 119.193 164.000 L 119.400 143.400 135.600 143.193 C 144.510 143.079,151.230 142.944,150.533 142.893 C 149.837 142.842,149.207 142.665,149.133 142.500 C 149.060 142.335,142.250 142.290,134.000 142.400 M198.200 142.400 L 187.400 142.600 187.200 146.850 C 187.071 149.600,187.141 151.046,187.400 150.946 C 187.627 150.859,187.800 149.191,187.800 147.096 L 187.800 143.400 199.800 143.191 C 206.400 143.076,211.230 142.941,210.533 142.891 C 209.837 142.841,209.207 142.665,209.133 142.500 C 209.060 142.335,204.140 142.290,198.200 142.400 M260.085 142.300 C 250.588 142.385,247.531 142.531,247.406 142.906 C 247.023 144.054,247.018 151.092,247.400 150.946 C 247.627 150.859,247.800 149.192,247.800 147.096 L 247.800 143.400 264.200 143.193 C 273.220 143.080,280.015 142.945,279.300 142.893 C 278.585 142.842,278.000 142.620,278.000 142.400 C 278.000 142.164,276.896 142.038,275.300 142.094 C 273.815 142.146,266.968 142.238,260.085 142.300 M305.000 142.372 L 299.000 142.600 298.993 163.600 L 298.985 184.600 299.193 164.000 L 299.400 143.400 320.000 143.195 C 331.330 143.082,340.015 142.947,339.300 142.895 C 338.585 142.843,338.000 142.665,338.000 142.500 C 338.000 142.142,313.536 142.047,305.000 142.372 M59.300 151.060 C 58.936 151.210,58.823 152.431,58.884 155.533 L 58.969 159.800 59.098 155.700 L 59.228 151.600 61.314 151.594 C 64.269 151.585,65.022 150.930,62.125 150.887 C 60.846 150.869,59.575 150.947,59.300 151.060 M179.300 151.065 C 178.909 151.223,178.821 154.902,178.895 167.933 L 178.991 184.600 179.100 168.100 L 179.209 151.600 181.104 151.572 C 182.147 151.556,183.360 151.389,183.800 151.200 C 184.674 150.825,180.226 150.691,179.300 151.065 M239.300 151.065 C 238.912 151.221,238.821 154.103,238.894 163.933 L 238.988 176.600 239.100 164.100 L 239.211 151.600 241.106 151.572 C 242.148 151.556,243.360 151.389,243.800 151.200 C 244.674 150.825,240.226 150.691,239.300 151.065 M152.337 160.100 C 152.415 164.734,152.612 167.858,152.796 167.400 C 153.266 166.233,153.087 152.296,152.600 152.133 C 152.339 152.046,152.248 154.816,152.337 160.100 M212.316 159.788 L 212.433 167.577 211.516 167.805 C 211.012 167.930,206.252 167.980,200.938 167.916 C 195.624 167.852,191.359 167.935,191.461 168.100 C 191.564 168.265,196.321 168.400,202.034 168.400 L 212.420 168.400 212.831 167.319 C 213.361 165.926,213.154 152.317,212.600 152.132 C 212.340 152.046,212.241 154.722,212.316 159.788 M71.200 159.467 C 71.200 159.899,73.152 159.989,81.500 159.940 C 87.165 159.907,91.305 159.805,90.700 159.713 C 90.095 159.622,89.599 159.424,89.599 159.273 C 89.598 159.123,85.458 158.985,80.399 158.967 C 72.982 158.940,71.200 159.036,71.200 159.467 M311.201 159.500 C 311.200 159.886,313.349 160.000,320.616 160.000 C 328.795 160.000,329.964 159.924,329.516 159.422 C 328.811 158.633,311.202 158.707,311.201 159.500 M65.529 160.694 L 67.257 160.849 67.129 164.225 C 67.058 166.082,67.135 167.601,67.300 167.601 C 67.465 167.600,67.600 165.980,67.600 164.000 L 67.600 160.400 65.700 160.470 L 63.800 160.540 65.529 160.694 M131.462 168.100 C 131.701 168.488,148.052 168.482,148.662 168.094 C 148.917 167.932,145.109 167.800,140.201 167.800 C 135.293 167.800,131.360 167.935,131.462 168.100 M91.685 169.073 C 92.251 169.222,92.393 169.854,92.503 172.726 L 92.635 176.200 92.718 172.500 C 92.798 168.893,92.777 168.801,91.900 168.846 C 91.247 168.880,91.188 168.942,91.685 169.073 M70.820 175.906 C 57.671 176.029,58.786 175.572,58.883 180.800 L 58.953 184.600 59.177 180.800 L 59.400 177.000 74.700 176.895 C 84.440 176.829,90.000 176.647,90.000 176.395 C 90.000 175.808,87.688 175.749,70.820 175.906 M251.200 176.300 C 251.200 176.690,254.147 176.800,264.600 176.800 C 275.053 176.800,278.000 176.690,278.000 176.300 C 278.000 175.910,275.053 175.800,264.600 175.800 C 254.147 175.800,251.200 175.910,251.200 176.300 M311.200 176.300 C 311.200 176.690,314.147 176.800,324.600 176.800 C 335.053 176.800,338.000 176.690,338.000 176.300 C 338.000 175.910,335.054 175.800,324.600 175.800 C 314.147 175.800,311.200 175.910,311.200 176.300 M210.700 177.493 L 212.400 177.646 212.406 181.123 C 212.413 185.036,213.064 185.004,213.152 181.086 C 213.235 177.443,213.082 177.187,210.873 177.270 L 209.000 177.340 210.700 177.493 M245.537 177.495 L 247.274 177.650 247.137 181.387 C 247.062 183.443,247.135 185.041,247.300 184.939 C 247.465 184.836,247.600 183.053,247.600 180.976 L 247.600 177.200 245.700 177.270 L 243.800 177.340 245.537 177.495 M31.680 202.320 C 30.181 202.391,29.089 202.634,28.985 202.920 C 28.676 203.770,28.589 245.200,28.896 245.200 C 29.059 245.200,29.239 235.795,29.296 224.300 L 29.400 203.400 33.000 203.176 C 34.980 203.052,36.120 202.917,35.533 202.876 C 34.947 202.834,34.407 202.665,34.333 202.500 C 34.260 202.335,33.066 202.254,31.680 202.320 M65.200 202.399 L 62.600 202.600 62.486 206.700 C 62.413 209.332,62.520 210.800,62.786 210.800 C 63.042 210.800,63.200 209.352,63.200 207.000 L 63.200 203.200 66.700 203.154 C 68.625 203.128,69.840 203.019,69.400 202.911 C 68.960 202.802,68.420 202.598,68.200 202.456 C 67.980 202.315,66.630 202.289,65.200 202.399 M108.400 202.400 L 97.400 202.600 97.369 206.800 L 97.338 211.000 97.569 207.200 L 97.800 203.400 110.000 203.191 C 116.710 203.076,121.630 202.941,120.933 202.891 C 120.237 202.841,119.607 202.665,119.533 202.500 C 119.460 202.335,114.450 202.290,108.400 202.400 M185.200 202.369 L 182.600 202.600 182.486 206.700 L 182.372 210.800 178.686 210.806 C 176.659 210.809,174.788 210.947,174.529 211.112 C 174.005 211.445,173.593 219.602,174.100 219.601 C 174.265 219.600,174.400 217.800,174.400 215.600 L 174.400 211.600 178.026 211.600 C 183.180 211.600,183.200 211.582,183.200 206.986 L 183.200 203.200 186.700 203.136 C 188.625 203.101,189.612 202.999,188.892 202.910 C 188.173 202.821,187.689 202.580,187.816 202.374 C 187.943 202.168,187.992 202.031,187.924 202.069 C 187.856 202.107,186.630 202.242,185.200 202.369 M224.086 202.300 C 212.678 202.384,209.129 202.526,208.991 202.905 C 208.678 203.764,208.586 245.200,208.896 245.200 C 209.059 245.200,209.239 235.795,209.296 224.300 L 209.400 203.400 225.800 203.193 C 234.820 203.080,241.615 202.945,240.900 202.893 C 240.185 202.842,239.600 202.620,239.600 202.400 C 239.600 202.180,239.465 202.043,239.300 202.095 C 239.135 202.147,232.289 202.239,224.086 202.300 M288.400 202.400 L 277.400 202.600 277.369 206.800 L 277.338 211.000 277.569 207.200 L 277.800 203.400 290.000 203.191 C 296.710 203.076,301.630 202.941,300.933 202.891 C 300.237 202.841,299.607 202.665,299.533 202.500 C 299.460 202.335,294.450 202.290,288.400 202.400 M348.200 202.394 L 329.000 202.600 328.800 206.650 C 328.679 209.105,328.758 210.848,329.000 211.073 C 329.265 211.319,329.400 210.086,329.400 207.423 L 329.400 203.400 349.800 203.194 C 361.020 203.081,369.604 202.946,368.876 202.894 C 368.115 202.840,367.658 202.630,367.800 202.400 C 367.936 202.180,367.902 202.042,367.724 202.094 C 367.546 202.146,358.760 202.281,348.200 202.394 M148.993 202.900 C 148.679 203.762,148.584 245.200,148.896 245.200 C 149.059 245.200,149.239 235.795,149.296 224.300 L 149.400 203.400 153.000 203.200 C 156.401 203.011,156.492 202.983,154.644 202.700 C 151.672 202.244,149.200 202.332,148.993 202.900 M126.400 210.832 C 126.400 211.364,126.954 211.517,127.789 211.214 C 128.489 210.959,128.456 210.904,127.489 210.719 C 126.890 210.605,126.400 210.655,126.400 210.832 M246.400 210.855 C 246.400 211.045,246.850 211.200,247.400 211.200 C 247.950 211.200,248.400 211.131,248.400 211.047 C 248.400 210.962,247.950 210.807,247.400 210.702 C 246.850 210.597,246.400 210.666,246.400 210.855 M54.500 211.065 C 54.138 211.211,54.023 212.389,54.084 215.333 L 54.167 219.400 54.298 215.500 L 54.429 211.600 56.514 211.594 C 57.662 211.591,58.870 211.413,59.200 211.200 C 59.833 210.791,55.489 210.666,54.500 211.065 M89.500 211.076 C 88.852 211.245,88.800 212.197,88.800 223.896 C 88.800 230.847,88.900 236.433,89.022 236.311 C 89.145 236.189,89.230 230.579,89.212 223.844 L 89.179 211.600 91.089 211.572 C 92.140 211.556,93.360 211.389,93.800 211.200 C 94.657 210.832,90.854 210.722,89.500 211.076 M269.500 211.076 C 268.848 211.246,268.800 212.363,268.795 227.329 C 268.792 236.168,268.681 243.805,268.548 244.300 C 268.403 244.840,268.485 245.200,268.753 245.200 C 269.075 245.200,269.200 240.503,269.200 228.400 L 269.200 211.600 271.100 211.594 C 272.145 211.591,273.270 211.413,273.600 211.200 C 274.223 210.797,270.946 210.698,269.500 211.076 M122.312 224.013 L 122.423 236.026 111.811 235.913 C 103.084 235.820,101.200 235.896,101.200 236.343 C 101.200 237.036,122.088 236.872,122.786 236.174 C 123.352 235.608,123.172 212.324,122.600 212.133 C 122.338 212.045,122.238 216.132,122.312 224.013 M242.200 215.600 C 242.200 218.271,242.333 219.200,242.716 219.200 C 243.106 219.200,243.203 218.355,243.116 215.732 C 242.959 211.041,242.200 210.931,242.200 215.600 M302.200 219.900 L 302.200 227.800 291.738 227.800 C 285.984 227.800,281.359 227.935,281.461 228.100 C 281.801 228.649,301.768 228.458,302.533 227.899 C 303.327 227.318,303.390 212.396,302.600 212.133 C 302.342 212.047,302.200 214.811,302.200 219.900 M345.400 228.200 C 345.400 237.110,345.535 244.400,345.700 244.400 C 345.865 244.400,346.000 237.110,346.000 228.200 C 346.000 219.290,345.865 212.000,345.700 212.000 C 345.535 212.000,345.400 219.290,345.400 228.200 M41.199 219.500 C 41.200 219.874,42.507 220.000,46.400 220.000 C 53.226 220.000,53.226 219.283,46.399 219.122 C 42.440 219.029,41.199 219.119,41.199 219.500 M221.202 219.500 C 221.200 219.886,223.306 220.000,230.400 220.000 C 240.505 220.000,243.683 219.272,234.300 219.107 C 223.286 218.913,221.204 218.975,221.202 219.500 M169.600 219.600 C 169.600 219.820,170.061 220.000,170.624 220.000 C 171.204 220.000,171.540 219.827,171.400 219.600 C 171.264 219.380,170.803 219.200,170.376 219.200 C 169.949 219.200,169.600 219.380,169.600 219.600 M163.929 220.694 L 165.657 220.849 165.529 224.221 C 165.452 226.223,165.563 227.656,165.800 227.747 C 166.055 227.844,166.154 226.537,166.073 224.150 L 165.945 220.400 164.073 220.470 L 162.200 220.540 163.929 220.694 M180.712 220.681 L 182.423 220.847 182.312 232.619 C 182.224 241.823,182.310 244.434,182.706 244.586 C 183.108 244.740,183.190 242.306,183.106 232.690 L 183.000 220.600 181.000 220.557 C 179.180 220.518,179.154 220.529,180.712 220.681 M53.927 232.599 C 53.998 234.690,54.178 236.400,54.327 236.401 C 54.477 236.401,54.543 234.691,54.473 232.601 C 54.402 230.510,54.222 228.800,54.073 228.799 C 53.923 228.799,53.857 230.509,53.927 232.599 M242.200 232.400 C 242.200 235.071,242.333 236.000,242.716 236.000 C 243.106 236.000,243.203 235.155,243.116 232.532 C 242.959 227.841,242.200 227.731,242.200 232.400 M66.400 236.286 C 66.400 236.569,66.844 236.800,67.387 236.800 C 68.028 236.800,68.306 236.619,68.178 236.286 C 68.069 236.003,67.625 235.771,67.190 235.771 C 66.756 235.771,66.400 236.003,66.400 236.286 M221.200 236.286 C 221.200 237.021,239.024 237.034,239.756 236.300 C 240.154 235.900,238.348 235.797,230.727 235.786 C 223.228 235.775,221.200 235.882,221.200 236.286 M60.729 237.494 L 62.457 237.649 62.329 241.025 C 62.233 243.529,62.329 244.402,62.700 244.401 C 63.055 244.400,63.200 243.539,63.200 241.433 C 63.200 237.369,63.097 237.186,60.857 237.270 L 59.000 237.340 60.729 237.494 M95.685 237.490 L 97.170 237.646 97.303 241.123 L 97.435 244.600 97.518 240.900 L 97.600 237.200 95.900 237.267 L 94.200 237.334 95.685 237.490 M300.729 237.494 L 302.457 237.649 302.329 241.025 C 302.233 243.529,302.329 244.402,302.700 244.401 C 303.055 244.400,303.200 243.539,303.200 241.433 C 303.200 237.369,303.097 237.186,300.857 237.270 L 299.000 237.340 300.729 237.494 " stroke="none" fill="#fc9efc" fill-rule="evenodd"></path><path id="path4" d="M98.000 142.375 C 98.000 142.581,98.585 142.806,99.300 142.875 L 100.600 143.000 100.714 146.900 L 100.829 150.800 85.914 150.895 C 77.712 150.948,70.100 150.975,69.000 150.955 L 67.000 150.919 67.000 154.960 L 67.000 159.000 63.032 159.200 C 60.119 159.347,59.015 159.549,58.878 159.960 C 58.728 160.416,59.154 160.479,61.147 160.298 C 62.496 160.176,63.600 160.203,63.600 160.358 C 63.600 161.079,70.862 159.798,71.301 159.000 C 71.691 158.292,71.667 158.261,71.097 158.727 C 70.742 159.017,69.856 159.197,69.126 159.127 L 67.800 159.000 67.685 155.300 C 67.622 153.265,67.622 151.573,67.685 151.540 C 67.748 151.507,75.360 151.372,84.600 151.240 L 101.400 151.000 101.522 147.800 C 101.717 142.691,101.486 142.000,99.582 142.000 C 98.712 142.000,98.000 142.169,98.000 142.375 M149.200 142.400 C 149.200 142.620,149.635 142.800,150.167 142.800 C 152.286 142.800,152.400 143.016,152.400 147.043 L 152.400 150.800 140.433 150.800 C 133.851 150.800,128.181 150.909,127.833 151.043 C 127.284 151.253,127.200 152.391,127.200 159.643 L 127.200 168.000 129.157 168.000 C 130.603 168.000,131.180 167.828,131.366 167.343 C 131.573 166.806,131.512 166.775,131.035 167.171 C 130.715 167.437,129.856 167.597,129.126 167.527 L 127.800 167.400 127.691 159.629 C 127.608 153.680,127.702 151.782,128.091 151.535 C 128.853 151.052,149.200 151.114,149.200 151.600 C 149.200 151.820,149.999 152.000,150.976 152.000 C 151.953 152.000,152.864 151.820,153.000 151.600 C 153.136 151.380,153.937 151.200,154.781 151.200 C 155.873 151.200,156.391 150.999,156.581 150.500 C 156.795 149.939,156.748 149.899,156.344 150.300 C 156.067 150.575,155.136 150.800,154.276 150.800 L 152.712 150.800 152.862 146.400 L 153.013 142.000 151.106 142.000 C 150.058 142.000,149.200 142.180,149.200 142.400 M209.200 142.400 C 209.200 142.620,209.635 142.800,210.167 142.800 C 212.286 142.800,212.400 143.016,212.400 147.043 L 212.400 150.800 201.700 150.893 C 195.815 150.943,190.145 150.981,189.100 150.975 L 187.200 150.966 187.200 159.483 L 187.200 168.000 189.157 168.000 C 190.603 168.000,191.180 167.828,191.366 167.343 C 191.573 166.806,191.512 166.775,191.035 167.171 C 190.715 167.437,189.856 167.597,189.126 167.527 L 187.800 167.400 187.692 159.559 L 187.583 151.717 190.292 151.461 C 194.725 151.043,209.200 151.149,209.200 151.600 C 209.200 151.820,209.999 152.000,210.976 152.000 C 211.953 152.000,212.864 151.820,213.000 151.600 C 213.136 151.380,213.937 151.200,214.781 151.200 C 215.873 151.200,216.391 150.999,216.581 150.500 C 216.795 149.939,216.748 149.899,216.344 150.300 C 216.067 150.575,215.136 150.800,214.276 150.800 L 212.712 150.800 212.862 146.400 L 213.013 142.000 211.106 142.000 C 210.058 142.000,209.200 142.180,209.200 142.400 M278.000 142.375 C 278.000 142.581,278.585 142.806,279.300 142.875 L 280.600 143.000 280.714 146.900 L 280.829 150.800 265.914 150.893 C 257.712 150.943,250.145 150.981,249.100 150.975 L 247.200 150.966 247.200 163.469 L 247.200 175.972 243.132 176.086 C 240.488 176.160,239.011 176.363,238.911 176.665 C 238.465 178.011,250.551 177.167,251.302 175.800 C 251.691 175.092,251.667 175.061,251.097 175.527 C 250.742 175.817,249.856 175.997,249.126 175.927 L 247.800 175.800 247.694 163.700 C 247.636 157.045,247.636 151.573,247.694 151.540 C 247.752 151.507,255.360 151.372,264.600 151.240 L 281.400 151.000 281.522 147.800 C 281.717 142.691,281.486 142.000,279.582 142.000 C 278.712 142.000,278.000 142.169,278.000 142.375 M338.000 142.375 C 338.000 142.581,338.585 142.806,339.300 142.875 L 340.600 143.000 340.714 146.900 L 340.829 150.800 324.647 150.800 C 305.212 150.800,307.200 150.272,307.200 155.435 C 307.200 159.961,307.423 160.315,310.028 159.933 C 311.652 159.695,311.259 159.000,309.501 159.000 L 307.800 159.000 307.685 155.300 C 307.622 153.265,307.622 151.560,307.685 151.511 C 307.748 151.462,315.360 151.327,324.600 151.211 L 341.400 151.000 341.522 147.800 C 341.717 142.691,341.486 142.000,339.582 142.000 C 338.712 142.000,338.000 142.169,338.000 142.375 M160.800 159.200 L 160.800 167.600 158.500 167.647 C 157.235 167.673,155.660 167.831,155.000 167.997 C 154.317 168.170,155.266 168.221,157.200 168.116 C 159.070 168.015,160.825 167.864,161.100 167.779 C 161.736 167.583,161.835 150.800,161.200 150.800 C 160.946 150.800,160.800 153.867,160.800 159.200 M220.800 167.600 L 220.800 184.400 218.700 184.406 C 217.545 184.409,216.373 184.556,216.096 184.732 C 215.610 185.041,220.087 184.910,221.100 184.585 C 221.741 184.380,221.840 150.800,221.200 150.800 C 220.940 150.800,220.800 156.667,220.800 167.600 M89.600 159.200 C 89.600 159.420,89.945 159.600,90.367 159.600 C 92.263 159.600,92.400 159.886,92.400 163.843 L 92.400 167.600 81.900 167.606 C 76.125 167.609,71.192 167.744,70.937 167.906 C 70.682 168.068,75.153 168.146,80.873 168.081 C 88.551 167.993,91.424 168.088,91.853 168.444 C 92.293 168.809,92.546 168.814,92.897 168.463 C 93.152 168.208,94.044 168.000,94.880 168.000 C 95.716 168.000,96.400 167.864,96.400 167.697 C 96.400 167.531,95.569 167.460,94.554 167.541 L 92.708 167.688 92.861 163.244 L 93.013 158.800 91.306 158.800 C 90.368 158.800,89.600 158.980,89.600 159.200 M329.200 159.200 C 329.200 159.420,329.425 159.627,329.700 159.661 C 329.975 159.694,330.380 159.764,330.600 159.815 C 330.820 159.866,331.315 159.928,331.700 159.954 C 332.314 159.994,332.400 160.465,332.400 163.800 L 332.400 167.600 320.300 167.606 C 305.941 167.613,307.140 167.169,307.285 172.433 L 307.400 176.600 309.074 176.722 C 310.481 176.824,310.827 176.696,311.240 175.922 C 311.680 175.097,311.664 175.055,311.092 175.527 C 310.740 175.817,309.856 175.997,309.126 175.927 L 307.800 175.800 307.683 172.234 C 307.534 167.668,306.470 168.013,320.700 168.006 L 332.800 168.000 332.805 164.300 C 332.808 162.265,332.919 160.195,333.052 159.700 C 333.279 158.853,333.174 158.800,331.247 158.800 C 330.121 158.800,329.200 158.980,329.200 159.200 M100.714 171.671 L 100.600 175.800 95.300 175.912 C 92.216 175.977,90.000 176.186,90.000 176.412 C 90.000 176.625,90.540 176.800,91.200 176.800 L 92.400 176.800 92.400 180.600 L 92.400 184.400 77.700 184.406 C 67.829 184.410,62.803 184.554,62.400 184.844 C 61.901 185.203,61.923 185.235,62.533 185.038 C 62.936 184.907,69.911 184.800,78.033 184.800 L 92.800 184.800 92.800 180.800 L 92.800 176.800 96.751 176.800 C 99.467 176.800,100.834 176.640,101.126 176.289 C 101.713 175.582,101.841 167.880,101.269 167.690 C 100.972 167.591,100.791 168.888,100.714 171.671 M152.667 168.667 C 152.520 168.813,152.400 170.521,152.400 172.461 L 152.400 175.989 139.900 176.094 L 127.400 176.200 127.286 180.300 L 127.172 184.400 125.086 184.406 C 123.939 184.409,122.730 184.606,122.400 184.844 C 121.901 185.203,121.923 185.235,122.533 185.038 C 122.936 184.907,124.234 184.800,125.418 184.800 L 127.571 184.800 127.686 180.900 L 127.800 177.000 140.274 176.894 L 152.749 176.789 152.874 172.593 C 152.943 170.286,152.985 168.399,152.967 168.399 C 152.948 168.400,152.813 168.520,152.667 168.667 M278.000 176.200 C 278.000 176.619,278.422 176.800,279.400 176.800 L 280.800 176.800 280.800 180.600 L 280.800 184.400 266.300 184.406 C 258.325 184.409,251.592 184.544,251.337 184.706 C 250.849 185.017,280.243 184.919,281.100 184.607 C 281.629 184.414,281.818 178.253,281.348 176.500 C 281.053 175.398,278.000 175.124,278.000 176.200 M338.000 176.200 C 338.000 176.619,338.422 176.800,339.400 176.800 L 340.800 176.800 340.800 180.596 L 340.800 184.392 321.900 184.502 L 303.000 184.612 322.200 184.606 L 341.400 184.600 341.522 181.400 C 341.717 176.291,341.486 175.600,339.582 175.600 C 338.442 175.600,338.000 175.768,338.000 176.200 M187.472 176.261 C 187.323 176.411,187.200 178.303,187.200 180.467 L 187.200 184.400 185.100 184.406 C 183.945 184.409,182.730 184.606,182.400 184.844 C 181.901 185.203,181.923 185.235,182.533 185.038 C 182.936 184.907,184.234 184.800,185.418 184.800 L 187.571 184.800 187.686 180.900 L 187.800 177.000 197.973 176.893 C 203.568 176.834,208.284 176.924,208.453 177.093 C 208.948 177.589,212.863 177.189,212.687 176.660 C 212.517 176.151,187.971 175.763,187.472 176.261 M34.400 202.400 C 34.400 202.620,34.745 202.800,35.167 202.800 C 37.215 202.800,37.200 202.738,37.200 211.163 C 37.200 220.164,37.502 220.934,40.567 219.757 C 41.696 219.324,41.240 219.000,39.501 219.000 L 37.800 219.000 37.800 210.500 L 37.800 201.999 36.100 202.000 C 35.165 202.000,34.400 202.180,34.400 202.400 M68.168 202.348 C 68.286 202.540,68.927 202.805,69.592 202.938 L 70.800 203.180 70.800 206.933 L 70.800 210.685 67.259 210.953 C 65.311 211.100,63.427 211.109,63.073 210.973 C 62.511 210.757,62.414 211.250,62.314 214.863 L 62.200 219.000 56.900 219.112 C 53.816 219.177,51.600 219.386,51.600 219.612 C 51.600 219.825,52.140 220.000,52.800 220.000 L 54.000 220.000 54.000 223.800 L 54.000 227.600 46.233 227.600 C 36.085 227.600,37.200 226.534,37.200 236.243 L 37.200 244.400 35.300 244.428 C 34.255 244.444,33.040 244.627,32.600 244.836 C 31.903 245.168,31.928 245.190,32.800 245.014 C 33.350 244.902,34.651 244.808,35.692 244.805 L 37.584 244.800 37.692 236.500 L 37.800 228.200 45.600 228.135 C 50.053 228.098,52.971 228.210,52.400 228.395 C 51.498 228.688,51.545 228.724,52.876 228.760 C 53.688 228.782,54.464 228.620,54.600 228.400 C 54.736 228.180,55.557 228.000,56.424 228.000 C 57.291 228.000,58.000 227.864,58.000 227.697 C 58.000 227.531,57.190 227.459,56.200 227.537 L 54.400 227.681 54.400 223.840 L 54.400 220.000 58.386 220.000 C 63.184 220.000,63.200 219.984,63.200 215.083 L 63.200 211.714 65.659 211.457 C 67.011 211.316,68.811 211.200,69.659 211.200 L 71.200 211.200 71.205 207.500 C 71.208 205.465,71.319 203.395,71.452 202.900 C 71.677 202.061,71.567 202.000,69.823 202.000 C 68.794 202.000,68.050 202.157,68.168 202.348 M119.600 202.375 C 119.600 202.581,120.185 202.806,120.900 202.875 L 122.200 203.000 122.314 206.900 L 122.429 210.800 111.514 210.893 C 105.512 210.943,99.790 210.983,98.800 210.981 L 97.000 210.976 97.111 223.488 L 97.222 236.000 93.444 236.000 C 89.531 236.000,88.400 236.199,88.400 236.889 C 88.400 237.137,89.406 237.229,90.994 237.128 C 92.420 237.037,93.635 237.078,93.694 237.219 C 93.752 237.359,95.405 237.278,97.367 237.037 C 101.099 236.580,102.444 235.800,99.501 235.800 L 97.800 235.800 97.694 224.026 C 97.622 216.097,97.727 212.113,98.014 211.826 C 98.655 211.184,119.600 210.966,119.600 211.601 C 119.600 212.077,120.180 212.051,124.672 211.373 C 125.687 211.220,126.443 210.862,126.596 210.461 C 126.798 209.931,126.747 209.899,126.344 210.300 C 126.067 210.575,125.246 210.800,124.520 210.800 L 123.200 210.800 123.195 207.300 C 123.187 202.359,123.049 202.000,121.153 202.000 C 120.299 202.000,119.600 202.169,119.600 202.375 M154.000 202.400 C 154.000 202.620,154.435 202.800,154.967 202.800 C 157.100 202.800,157.200 202.998,157.200 207.243 L 157.200 211.200 159.200 211.200 C 160.300 211.200,161.200 211.064,161.200 210.897 C 161.200 210.731,160.374 210.660,159.363 210.740 L 157.527 210.886 157.663 206.443 L 157.800 201.999 155.900 202.000 C 154.855 202.000,154.000 202.180,154.000 202.400 M187.800 202.400 C 187.661 202.626,187.985 202.800,188.544 202.800 C 190.952 202.800,190.800 201.380,190.800 223.843 L 190.800 244.400 188.900 244.406 C 187.855 244.409,186.773 244.556,186.496 244.732 C 186.220 244.908,187.120 244.973,188.496 244.878 C 189.873 244.782,191.039 244.672,191.086 244.632 C 191.134 244.593,191.224 234.984,191.286 223.280 L 191.400 202.000 189.724 202.000 C 188.802 202.000,187.936 202.180,187.800 202.400 M239.600 202.375 C 239.600 202.581,240.185 202.806,240.900 202.875 L 242.200 203.000 242.314 206.900 L 242.429 210.800 230.447 210.800 C 215.836 210.800,217.200 210.348,217.200 215.194 C 217.200 219.576,217.490 220.139,219.643 219.927 C 221.582 219.737,221.469 219.000,219.501 219.000 L 217.800 219.000 217.800 215.200 L 217.800 211.400 228.800 211.410 C 234.850 211.416,240.520 211.470,241.400 211.531 C 243.895 211.703,246.313 211.205,246.596 210.461 C 246.798 209.931,246.747 209.899,246.344 210.300 C 246.067 210.575,245.246 210.800,244.520 210.800 L 243.200 210.800 243.195 207.300 C 243.187 202.359,243.049 202.000,241.153 202.000 C 240.299 202.000,239.600 202.169,239.600 202.375 M299.600 202.375 C 299.600 202.581,300.185 202.806,300.900 202.875 L 302.200 203.000 302.314 206.900 L 302.429 210.800 291.514 210.893 C 285.512 210.943,279.790 210.983,278.800 210.980 L 277.000 210.976 277.115 219.488 L 277.230 228.000 279.215 228.000 C 280.307 228.000,281.200 227.864,281.200 227.697 C 281.200 227.531,280.390 227.459,279.400 227.537 L 277.600 227.681 277.600 219.864 C 277.600 214.050,277.728 211.964,278.100 211.724 C 278.967 211.162,299.600 211.045,299.600 211.601 C 299.600 212.077,300.180 212.051,304.672 211.373 C 305.687 211.220,306.443 210.862,306.596 210.461 C 306.798 209.931,306.747 209.899,306.344 210.300 C 306.067 210.575,305.246 210.800,304.520 210.800 L 303.200 210.800 303.195 207.300 C 303.187 202.359,303.049 202.000,301.153 202.000 C 300.299 202.000,299.600 202.169,299.600 202.375 M367.800 202.400 C 367.661 202.626,367.985 202.800,368.544 202.800 C 370.689 202.800,370.800 203.008,370.800 207.043 L 370.800 210.800 363.033 210.800 C 358.761 210.800,354.981 210.909,354.633 211.043 C 354.070 211.259,354.000 213.114,354.000 227.843 L 354.000 244.400 352.100 244.428 C 351.055 244.444,349.840 244.627,349.400 244.836 C 348.703 245.168,348.728 245.190,349.600 245.014 C 350.150 244.902,351.453 244.808,352.496 244.805 L 354.391 244.800 354.496 228.100 L 354.600 211.400 362.900 211.292 L 371.200 211.184 371.205 207.492 C 371.208 205.461,371.319 203.395,371.452 202.900 C 371.712 201.929,368.374 201.472,367.800 202.400 M130.907 211.300 C 130.918 211.575,130.898 217.245,130.863 223.900 L 130.800 236.000 127.100 236.035 C 123.052 236.073,118.066 236.646,120.900 236.747 L 122.400 236.800 122.400 240.600 L 122.400 244.400 111.900 244.406 C 106.125 244.409,101.192 244.544,100.937 244.706 C 100.451 245.015,121.835 244.915,122.700 244.605 C 123.052 244.478,123.200 243.300,123.200 240.613 L 123.200 236.800 127.200 236.800 L 131.200 236.800 131.205 224.700 C 131.208 218.045,131.319 212.195,131.452 211.700 C 131.585 211.203,131.513 210.800,131.291 210.800 C 131.070 210.800,130.897 211.025,130.907 211.300 M165.514 214.900 L 165.400 219.000 161.400 219.200 L 157.400 219.400 157.294 231.900 L 157.189 244.400 155.294 244.428 C 154.252 244.444,153.040 244.627,152.600 244.836 C 151.903 245.168,151.928 245.190,152.800 245.014 C 153.350 244.902,154.652 244.808,155.694 244.805 L 157.588 244.800 157.694 232.500 L 157.800 220.200 159.900 220.079 C 161.055 220.013,162.000 220.112,162.000 220.299 C 162.000 220.773,169.306 219.893,169.469 219.400 C 169.543 219.175,168.856 219.000,167.901 219.000 L 166.200 219.000 166.200 214.900 C 166.200 209.574,165.662 209.574,165.514 214.900 M250.600 211.106 C 250.835 211.279,250.947 213.008,250.873 215.300 L 250.745 219.200 245.173 219.200 C 241.724 219.200,239.600 219.352,239.600 219.600 C 239.600 219.820,240.230 220.000,241.000 220.000 L 242.400 220.000 242.400 223.800 L 242.400 227.600 230.433 227.600 C 215.847 227.600,217.199 227.156,217.206 231.943 C 217.213 236.532,217.382 236.897,219.410 236.728 C 221.525 236.551,221.599 235.800,219.501 235.800 L 217.800 235.800 217.800 232.000 L 217.800 228.200 230.000 228.150 C 236.924 228.121,241.595 228.238,240.800 228.421 C 239.522 228.715,239.557 228.729,241.200 228.584 C 244.983 228.251,246.347 227.916,246.596 227.261 C 246.798 226.731,246.747 226.699,246.344 227.100 C 246.067 227.375,245.246 227.600,244.520 227.600 L 243.200 227.600 243.200 223.800 L 243.200 220.000 247.200 220.000 L 251.200 220.000 251.205 216.300 C 251.208 214.265,251.319 212.195,251.452 211.700 C 251.639 211.001,251.527 210.801,250.947 210.806 C 250.531 210.810,250.378 210.943,250.600 211.106 M332.536 211.106 C 332.281 211.268,334.486 211.341,337.436 211.269 C 341.084 211.180,342.800 211.276,342.800 211.569 C 342.800 211.806,343.520 212.000,344.400 212.000 C 346.016 212.000,346.532 211.490,345.367 211.043 C 344.466 210.697,333.094 210.753,332.536 211.106 M311.067 211.867 C 310.920 212.013,310.800 219.393,310.800 228.267 L 310.800 244.400 308.900 244.406 C 307.855 244.409,306.730 244.606,306.400 244.844 C 305.901 245.203,305.923 245.235,306.533 245.038 C 306.936 244.907,308.147 244.800,309.224 244.800 L 311.183 244.800 311.291 228.200 C 311.351 219.070,311.385 211.600,311.367 211.600 C 311.348 211.600,311.213 211.720,311.067 211.867 M171.438 219.661 C 171.571 219.877,171.933 219.958,172.240 219.840 C 173.695 219.282,174.000 219.976,174.000 223.843 L 174.000 227.600 171.900 227.606 C 170.745 227.609,169.530 227.805,169.200 228.041 C 168.729 228.377,168.816 228.420,169.600 228.240 C 170.150 228.114,171.448 228.008,172.486 228.005 L 174.371 228.000 174.486 224.100 L 174.600 220.200 176.700 220.079 C 177.855 220.013,178.800 220.103,178.800 220.279 C 178.800 220.456,179.709 220.537,180.820 220.460 C 185.269 220.152,182.633 219.401,176.863 219.333 C 173.228 219.291,171.281 219.408,171.438 219.661 M62.400 231.800 L 62.400 236.000 58.833 236.000 C 55.138 236.000,54.000 236.207,54.000 236.878 C 54.000 237.107,55.005 237.214,56.401 237.136 C 57.721 237.061,58.801 237.099,58.801 237.220 C 58.799 237.620,66.134 236.608,66.272 236.189 C 66.355 235.936,65.775 235.838,64.766 235.935 L 63.125 236.091 63.262 231.845 C 63.366 228.641,63.277 227.599,62.900 227.600 C 62.532 227.600,62.400 228.707,62.400 231.800 M251.067 228.667 C 250.920 228.813,250.800 230.532,250.800 232.486 L 250.800 236.039 245.700 235.999 C 239.282 235.948,239.600 235.927,239.600 236.400 C 239.600 236.620,240.230 236.800,241.000 236.800 L 242.400 236.800 242.400 240.600 L 242.400 244.400 227.900 244.428 C 219.925 244.444,213.091 244.579,212.713 244.728 C 211.967 245.023,241.878 244.900,242.700 244.605 C 243.052 244.478,243.200 243.300,243.200 240.613 L 243.200 236.800 247.174 236.800 L 251.149 236.800 251.274 232.599 C 251.343 230.289,251.385 228.399,251.367 228.399 C 251.348 228.400,251.213 228.520,251.067 228.667 M68.097 236.100 C 68.188 236.375,68.833 236.656,69.531 236.725 L 70.800 236.851 70.800 240.625 L 70.800 244.400 68.900 244.406 C 67.855 244.409,66.773 244.556,66.496 244.732 C 66.220 244.908,67.120 244.973,68.496 244.878 C 69.873 244.782,71.026 244.681,71.057 244.652 C 71.089 244.623,71.181 242.575,71.263 240.100 L 71.413 235.600 69.673 235.600 C 68.460 235.600,67.983 235.751,68.097 236.100 M277.443 236.633 C 277.309 236.981,277.200 238.871,277.200 240.833 L 277.200 244.400 275.300 244.428 C 274.255 244.444,273.040 244.627,272.600 244.836 C 271.903 245.168,271.928 245.190,272.800 245.014 C 273.350 244.902,274.648 244.808,275.686 244.805 L 277.571 244.800 277.686 240.900 L 277.800 237.000 285.400 236.892 C 289.581 236.832,294.351 236.922,296.000 237.092 C 300.218 237.525,302.821 237.321,302.537 236.579 C 302.186 235.666,277.794 235.718,277.443 236.633 " stroke="none" fill="#8aeffa" fill-rule="evenodd"></path></g></svg>